<svg width="22" height="22" viewBox="0 0 22 22" fill="none" xmlns="http://www.w3.org/2000/svg">
<path d="M6.57989 12.5922C8.10739 12.5922 9.33156 13.8282 9.33156 15.3666V19.0597C9.33156 20.5872 8.10739 21.833 6.57989 21.833H2.91822C1.40156 21.833 0.166557 20.5872 0.166557 19.0597V15.3666C0.166557 13.8282 1.40156 12.5922 2.91822 12.5922H6.57989ZM19.0817 12.5922C20.5983 12.5922 21.8333 13.8282 21.8333 15.3666V19.0597C21.8333 20.5872 20.5983 21.833 19.0817 21.833H15.42C13.8925 21.833 12.6683 20.5872 12.6683 19.0597V15.3666C12.6683 13.8282 13.8925 12.5922 15.42 12.5922H19.0817ZM6.57989 0.166656C8.10739 0.166656 9.33156 1.41249 9.33156 2.94107V6.63416C9.33156 8.17249 8.10739 9.40749 6.57989 9.40749H2.91822C1.40156 9.40749 0.166557 8.17249 0.166557 6.63416V2.94107C0.166557 1.41249 1.40156 0.166656 2.91822 0.166656H6.57989ZM19.0817 0.166656C20.5983 0.166656 21.8333 1.41249 21.8333 2.94107V6.63416C21.8333 8.17249 20.5983 9.40749 19.0817 9.40749H15.42C13.8925 9.40749 12.6683 8.17249 12.6683 6.63416V2.94107C12.6683 1.41249 13.8925 0.166656 15.42 0.166656H19.0817Z" fill="#CACBCE"/>
</svg>
